<?xml version="1.0" standalone="no"?>
<!DOCTYPE svg PUBLIC "-//W3C//DTD SVG 20010904//EN"
 "http://www.w3.org/TR/2001/REC-SVG-20010904/DTD/svg10.dtd">
<svg version="1.0" xmlns="http://www.w3.org/2000/svg"
 width="800.000000pt" height="800.000000pt" viewBox="0 0 800.000000 800.000000"
 preserveAspectRatio="xMidYMid meet">
<metadata>
Created by potrace 1.11, written by Peter Selinger 2001-2013
</metadata>
<g transform="translate(0.000000,800.000000) scale(0.100000,-0.100000)"
fill="#000000" stroke="none">
<path d="M2165 6433 c-57 -50 -157 -138 -189 -168 -35 -31 -150 -134 -195
-172 -14 -13 -29 -23 -33 -23 -5 0 -8 -7 -8 -15 0 -8 -4 -15 -10 -15 -5 0 -18
-8 -28 -17 -10 -10 -38 -36 -63 -57 -24 -22 -64 -58 -89 -80 -25 -23 -76 -68
-114 -101 -38 -33 -83 -73 -101 -90 -18 -16 -48 -43 -67 -60 -73 -63 -172
-151 -208 -185 -21 -19 -60 -54 -87 -77 -26 -22 -61 -53 -78 -68 -78 -71 -116
-106 -195 -175 -47 -41 -87 -77 -90 -80 -3 -3 -39 -35 -80 -71 -41 -36 -90
-78 -107 -94 l-33 -28 0 -707 0 -707 108 -37 c59 -21 116 -41 127 -46 11 -4
36 -13 55 -20 19 -7 44 -16 55 -20 11 -5 38 -14 60 -21 22 -6 45 -14 50 -18 6
-3 15 -6 20 -7 10 -3 252 -88 290 -103 11 -5 22 -9 25 -9 3 0 19 -6 35 -12 44
-18 218 -80 235 -85 8 -2 16 -4 18 -5 1 -2 5 -3 10 -5 4 -1 14 -5 22 -8 22
-10 237 -87 300 -108 30 -10 93 -32 140 -49 47 -17 105 -38 130 -46 25 -8 54
-19 65 -24 11 -5 49 -18 85 -30 36 -12 71 -26 78 -32 6 -6 12 -8 12 -5 0 4 30
-5 68 -20 37 -14 78 -29 92 -33 14 -5 70 -25 125 -45 55 -20 105 -37 110 -38
12 -3 132 -45 160 -57 23 -10 122 -46 180 -65 22 -8 90 -32 150 -53 317 -115
503 -181 520 -186 6 -2 17 -6 25 -9 24 -10 184 -68 195 -70 6 -1 24 -8 40 -14
17 -6 68 -25 115 -42 47 -16 168 -60 270 -96 102 -37 212 -76 245 -87 33 -11
74 -26 90 -33 32 -12 123 -45 140 -49 6 -2 17 -6 25 -9 117 -44 184 -67 193
-67 7 0 23 -6 37 -13 14 -7 45 -19 70 -27 25 -7 50 -17 55 -20 6 -4 22 -10 37
-14 15 -3 40 -11 55 -18 15 -6 33 -12 38 -14 6 -1 61 -21 124 -44 63 -23 119
-43 125 -45 6 -1 25 -7 41 -14 26 -11 153 -57 180 -65 6 -2 23 -8 38 -14 15
-7 40 -15 55 -18 15 -4 32 -10 37 -14 6 -4 22 -10 36 -14 23 -5 35 2 80 45 30
28 61 56 70 63 9 6 56 47 104 91 48 44 93 85 99 90 19 17 97 86 176 155 40 36
83 74 96 85 27 25 151 135 174 155 40 35 166 147 189 169 14 13 55 49 90 80
36 31 72 63 81 71 9 8 49 44 90 80 41 36 82 72 90 80 8 8 53 49 100 90 47 40
99 86 115 101 17 15 52 47 79 71 27 24 73 65 103 92 30 27 63 56 73 63 20 14
20 30 20 723 l0 708 -57 20 c-32 11 -103 37 -158 57 -55 20 -104 37 -110 39
-5 1 -14 4 -20 8 -5 3 -26 10 -45 16 -101 29 -176 62 -185 80 -50 95 -210 187
-360 208 -119 16 -122 17 -220 14 -85 -2 -121 8 -478 142 -59 22 -113 41 -120
42 -7 2 -19 6 -27 9 -8 3 -43 15 -77 27 -33 12 -64 29 -67 39 -37 101 -187
202 -336 226 -25 4 -54 10 -65 12 -33 9 -248 11 -275 3 -14 -4 -36 -3 -50 2
-63 24 -190 70 -245 89 -33 11 -69 24 -80 29 -11 5 -74 28 -140 51 -66 23
-131 46 -145 52 -14 5 -34 12 -45 14 -11 1 -27 13 -35 24 -37 53 -101 107
-160 136 -110 53 -215 74 -385 77 -55 1 -109 6 -120 12 -11 6 -63 26 -115 43
-52 18 -102 35 -110 39 -8 3 -17 6 -20 7 -3 1 -12 4 -20 8 -8 3 -55 20 -105
37 -49 17 -112 40 -140 50 -27 10 -78 28 -112 40 -47 17 -64 28 -72 49 -38 99
-223 195 -416 216 -59 6 -190 7 -230 1 -11 -2 -63 13 -115 32 -76 27 -155 54
-155 52 0 0 -13 -12 -30 -27z"/>
</g>
</svg>
